{
    "patcher": {
        "fileversion": 1,
        "appversion": {
            "major": 9,
            "minor": 1,
            "revision": 2,
            "architecture": "x64",
            "modernui": 1
        },
        "classnamespace": "box",
        "rect": [ 34.0, 87.0, 1013.0, 779.0 ],
        "openinpresentation": 1,
        "boxes": [
            {
                "box": {
                    "id": "obj-3",
                    "maxclass": "newobj",
                    "numinlets": 2,
                    "numoutlets": 1,
                    "outlettype": [ "bang" ],
                    "patching_rect": [ 300.0, 90.0, 133.0, 22.0 ],
                    "text": "metro 60000 @active 1"
                }
            },
            {
                "box": {
                    "id": "obj-17",
                    "maxclass": "message",
                    "numinlets": 2,
                    "numoutlets": 1,
                    "outlettype": [ "" ],
                    "patching_rect": [ 120.0, 360.0, 74.0, 22.0 ],
                    "text": "text \"-inf dB\""
                }
            },
            {
                "box": {
                    "id": "obj-9",
                    "maxclass": "newobj",
                    "numinlets": 2,
                    "numoutlets": 2,
                    "outlettype": [ "bang", "" ],
                    "patching_rect": [ 120.0, 330.0, 34.0, 22.0 ],
                    "text": "sel 0"
                }
            },
            {
                "box": {
                    "id": "obj-8",
                    "maxclass": "newobj",
                    "numinlets": 2,
                    "numoutlets": 1,
                    "outlettype": [ "" ],
                    "patching_rect": [ 120.0, 165.0, 32.0, 22.0 ],
                    "text": "gate"
                }
            },
            {
                "box": {
                    "id": "obj-7",
                    "maxclass": "newobj",
                    "numinlets": 1,
                    "numoutlets": 2,
                    "outlettype": [ "float", "float" ],
                    "patching_rect": [ 120.0, 135.0, 29.5, 22.0 ],
                    "text": "t f f"
                }
            },
            {
                "box": {
                    "id": "obj-4",
                    "maxclass": "newobj",
                    "numinlets": 2,
                    "numoutlets": 1,
                    "outlettype": [ "int" ],
                    "patching_rect": [ 180.0, 135.0, 40.0, 22.0 ],
                    "text": "> -60."
                }
            },
            {
                "box": {
                    "bgcolor": [ 0.125, 0.125, 0.125, 0.0 ],
                    "fontsize": 10.0,
                    "id": "obj-32",
                    "maxclass": "textbutton",
                    "numinlets": 1,
                    "numoutlets": 3,
                    "outlettype": [ "", "", "int" ],
                    "parameter_enable": 0,
                    "patching_rect": [ 210.0, 390.0, 100.0, 20.0 ],
                    "presentation": 1,
                    "presentation_rect": [ 0.0, 0.0, 45.0, 120.0 ],
                    "text": "-2.7 dB",
                    "texton": "-10.76"
                }
            },
            {
                "box": {
                    "id": "obj-2",
                    "maxclass": "newobj",
                    "numinlets": 1,
                    "numoutlets": 6,
                    "outlettype": [ "signal", "bang", "int", "float", "", "" ],
                    "patching_rect": [ 30.0, 90.0, 71.5, 22.0 ],
                    "text": "typeroute~"
                }
            },
            {
                "box": {
                    "comment": "",
                    "id": "obj-1",
                    "index": 1,
                    "maxclass": "inlet",
                    "numinlets": 0,
                    "numoutlets": 1,
                    "outlettype": [ "signal" ],
                    "patching_rect": [ 30.0, 15.0, 30.0, 30.0 ]
                }
            },
            {
                "box": {
                    "id": "obj-30",
                    "maxclass": "newobj",
                    "numinlets": 1,
                    "numoutlets": 1,
                    "outlettype": [ "" ],
                    "patching_rect": [ 210.0, 330.0, 89.0, 22.0 ],
                    "text": "string.tosymbol"
                }
            },
            {
                "box": {
                    "id": "obj-24",
                    "maxclass": "newobj",
                    "numinlets": 1,
                    "numoutlets": 1,
                    "outlettype": [ "" ],
                    "patching_rect": [ 210.0, 300.0, 67.0, 22.0 ],
                    "text": "append dB"
                }
            },
            {
                "box": {
                    "id": "obj-18",
                    "maxclass": "newobj",
                    "numinlets": 2,
                    "numoutlets": 1,
                    "outlettype": [ "float" ],
                    "patching_rect": [ 210.0, 270.0, 32.0, 22.0 ],
                    "text": "/ 10."
                }
            },
            {
                "box": {
                    "id": "obj-16",
                    "maxclass": "newobj",
                    "numinlets": 2,
                    "numoutlets": 1,
                    "outlettype": [ "int" ],
                    "patching_rect": [ 210.0, 240.0, 29.5, 22.0 ],
                    "text": "i"
                }
            },
            {
                "box": {
                    "id": "obj-14",
                    "maxclass": "newobj",
                    "numinlets": 2,
                    "numoutlets": 1,
                    "outlettype": [ "float" ],
                    "patching_rect": [ 210.0, 210.0, 33.0, 22.0 ],
                    "text": "* 10."
                }
            },
            {
                "box": {
                    "id": "obj-49",
                    "maxclass": "message",
                    "numinlets": 2,
                    "numoutlets": 1,
                    "outlettype": [ "" ],
                    "patching_rect": [ 300.0, 135.0, 29.5, 22.0 ],
                    "text": "0"
                }
            },
            {
                "box": {
                    "id": "obj-42",
                    "maxclass": "newobj",
                    "numinlets": 2,
                    "numoutlets": 1,
                    "outlettype": [ "float" ],
                    "patching_rect": [ 300.0, 180.0, 29.5, 22.0 ],
                    "text": "f"
                }
            },
            {
                "box": {
                    "id": "obj-38",
                    "maxclass": "newobj",
                    "numinlets": 2,
                    "numoutlets": 2,
                    "outlettype": [ "float", "int" ],
                    "patching_rect": [ 210.0, 180.0, 71.0, 22.0 ],
                    "text": "minimum 0."
                }
            },
            {
                "box": {
                    "id": "obj-35",
                    "maxclass": "newobj",
                    "numinlets": 1,
                    "numoutlets": 1,
                    "outlettype": [ "" ],
                    "patching_rect": [ 210.0, 360.0, 75.0, 22.0 ],
                    "text": "prepend text"
                }
            },
            {
                "box": {
                    "id": "obj-11",
                    "maxclass": "newobj",
                    "numinlets": 1,
                    "numoutlets": 1,
                    "outlettype": [ "" ],
                    "patching_rect": [ 30.0, 150.0, 39.0, 22.0 ],
                    "text": "atodb"
                }
            },
            {
                "box": {
                    "id": "obj-10",
                    "maxclass": "newobj",
                    "numinlets": 2,
                    "numoutlets": 1,
                    "outlettype": [ "float" ],
                    "patching_rect": [ 30.0, 120.0, 88.0, 22.0 ],
                    "text": "snapshot~ 100"
                }
            },
            {
                "box": {
                    "id": "obj-43",
                    "maxclass": "newobj",
                    "numinlets": 2,
                    "numoutlets": 1,
                    "outlettype": [ "float" ],
                    "patching_rect": [ 30.0, 180.0, 36.0, 22.0 ],
                    "text": "+ 60."
                }
            },
            {
                "box": {
                    "drawoffcolor": 1,
                    "elementcolor": [ 1.0, 0.725490196078431, 0.003921568627451, 1.0 ],
                    "floatoutput": 1,
                    "id": "obj-39",
                    "ignoreclick": 1,
                    "knobcolor": [ 0.125, 0.125, 0.125, 1.0 ],
                    "knobshape": 4,
                    "maxclass": "slider",
                    "numinlets": 1,
                    "numoutlets": 1,
                    "outlettype": [ "" ],
                    "parameter_enable": 0,
                    "patching_rect": [ 30.0, 285.0, 20.0, 140.0 ],
                    "presentation": 1,
                    "presentation_rect": [ 0.0, 0.0, 45.0, 120.0 ],
                    "saved_attribute_attributes": {
                        "elementcolor": {
                            "expression": "themecolor.live_gain_reduction_line_color"
                        }
                    },
                    "size": 60.0
                }
            }
        ],
        "lines": [
            {
                "patchline": {
                    "destination": [ "obj-2", 0 ],
                    "source": [ "obj-1", 0 ]
                }
            },
            {
                "patchline": {
                    "destination": [ "obj-11", 0 ],
                    "source": [ "obj-10", 0 ]
                }
            },
            {
                "patchline": {
                    "destination": [ "obj-43", 0 ],
                    "order": 1,
                    "source": [ "obj-11", 0 ]
                }
            },
            {
                "patchline": {
                    "destination": [ "obj-7", 0 ],
                    "order": 0,
                    "source": [ "obj-11", 0 ]
                }
            },
            {
                "patchline": {
                    "destination": [ "obj-16", 0 ],
                    "source": [ "obj-14", 0 ]
                }
            },
            {
                "patchline": {
                    "destination": [ "obj-18", 0 ],
                    "source": [ "obj-16", 0 ]
                }
            },
            {
                "patchline": {
                    "destination": [ "obj-32", 0 ],
                    "source": [ "obj-17", 0 ]
                }
            },
            {
                "patchline": {
                    "destination": [ "obj-24", 0 ],
                    "source": [ "obj-18", 0 ]
                }
            },
            {
                "patchline": {
                    "destination": [ "obj-10", 0 ],
                    "source": [ "obj-2", 0 ]
                }
            },
            {
                "patchline": {
                    "destination": [ "obj-49", 0 ],
                    "source": [ "obj-2", 1 ]
                }
            },
            {
                "patchline": {
                    "destination": [ "obj-30", 0 ],
                    "source": [ "obj-24", 0 ]
                }
            },
            {
                "patchline": {
                    "destination": [ "obj-49", 0 ],
                    "source": [ "obj-3", 0 ]
                }
            },
            {
                "patchline": {
                    "destination": [ "obj-35", 0 ],
                    "source": [ "obj-30", 0 ]
                }
            },
            {
                "patchline": {
                    "destination": [ "obj-49", 0 ],
                    "source": [ "obj-32", 0 ]
                }
            },
            {
                "patchline": {
                    "destination": [ "obj-32", 0 ],
                    "source": [ "obj-35", 0 ]
                }
            },
            {
                "patchline": {
                    "destination": [ "obj-14", 0 ],
                    "order": 1,
                    "source": [ "obj-38", 0 ]
                }
            },
            {
                "patchline": {
                    "destination": [ "obj-42", 0 ],
                    "order": 0,
                    "source": [ "obj-38", 0 ]
                }
            },
            {
                "patchline": {
                    "destination": [ "obj-8", 0 ],
                    "order": 1,
                    "source": [ "obj-4", 0 ]
                }
            },
            {
                "patchline": {
                    "destination": [ "obj-9", 0 ],
                    "order": 0,
                    "source": [ "obj-4", 0 ]
                }
            },
            {
                "patchline": {
                    "destination": [ "obj-38", 1 ],
                    "source": [ "obj-42", 0 ]
                }
            },
            {
                "patchline": {
                    "destination": [ "obj-39", 0 ],
                    "source": [ "obj-43", 0 ]
                }
            },
            {
                "patchline": {
                    "destination": [ "obj-42", 0 ],
                    "source": [ "obj-49", 0 ]
                }
            },
            {
                "patchline": {
                    "destination": [ "obj-4", 0 ],
                    "source": [ "obj-7", 1 ]
                }
            },
            {
                "patchline": {
                    "destination": [ "obj-8", 1 ],
                    "source": [ "obj-7", 0 ]
                }
            },
            {
                "patchline": {
                    "destination": [ "obj-38", 0 ],
                    "source": [ "obj-8", 0 ]
                }
            },
            {
                "patchline": {
                    "destination": [ "obj-17", 0 ],
                    "source": [ "obj-9", 0 ]
                }
            }
        ]
    }
}